<svg xmlns="http://www.w3.org/2000/svg" viewBox="0 0 180.52 419.87"><defs><style>.cls-1{fill:#ffeee6;}.cls-2{fill:#e0d2cd;}.cls-3{fill:#c6bab6;}.cls-4{fill:#2fa5a2;}.cls-5{fill:#fcd1bb;}.cls-6{fill:#e59f80;}.cls-7{fill:#ffdec9;}.cls-8{fill:#ffccb0;}.cls-9{fill:#278480;}.cls-10{fill:#eab498;}.cls-11{fill:#efdfe8;}.cls-12{fill:#2b938e;}.cls-13{fill:#9e8f95;}.cls-14{fill:#963330;}.cls-15{fill:#24273f;}.cls-16{fill:#5f4a9e;}.cls-17{fill:#a0325a;}.cls-18{fill:#2f325b;}.cls-19{fill:#902d51;}.cls-20{fill:#93624d;}.cls-21{fill:#4f4287;}.cls-22{fill:#bc7a62;}.cls-23{fill:#281d19;}.cls-24{fill:#382823;}.cls-25{fill:#3f356c;}.cls-26{fill:#b54372;}.cls-27{fill:#628ac7;}</style></defs><title>Asset 1</title><g id="Layer_2" data-name="Layer 2"><g id="artwork"><g id="Father_Son" data-name="Father + Son"><path class="cls-1" d="M24.92,314.69c-3.24-12.57-4.16-23-4.07-38.73,1.64.15,3.06.23,4,.22-.06-1.57-.1-3.19-.12-4.81,0-2,0-4.06,0-6l2.23.06c-.05,2.14,0,4.39.19,6.3.21,2.81.51,4.9.51,4.9,7-1.77,13.53-3.84,13.53-3.84-2.88-10.12-6.81-18.86-7.91-19.4v-.08a5.39,5.39,0,0,0,2.23-1.44,9.94,9.94,0,0,0,1.53-1.69c3.38,4.51,7.94,13.18,10.17,17.6.86,1.65,1.38,2.72,1.38,2.72.55,0,1.16,0,1.77-.09h0c-3.81,11.41-4.3,24.32-4.65,29.74-.4,6.32-4.08,17.55-2.24,19.38-2.45,3-4.2,9.43-5.47,17-2.8.6-5.33,1.12-7.31,1.51-.44.08-.88.15-1.33.21C31.42,337.24,28.15,327.23,24.92,314.69Z"/><path class="cls-2" d="M24.92,314.69c3.23,12.54,6.5,22.55,4.49,23.57h0c.22-4.73-10.9-14.59-14.28-20.69,0-.1-.12-.2-.18-.31-2.64-3.91.88-16.25,0-42.09h0c2,.33,4.07.61,5.92.79C20.76,291.7,21.68,302.12,24.92,314.69Z"/><path class="cls-3" d="M29.39,338.27C19,339.69,6.23,334.77,0,332.5c3.53-6.56,16.87-11.07,15.11-14.92C18.49,323.68,29.61,333.54,29.39,338.27Z"/><path class="cls-4" d="M98.29,187.67a4.36,4.36,0,0,0,1.63-2c1.35-3,2.15-1.82,3.4-4.12a17.9,17.9,0,0,0-.24,5.28c.48,3.24.21,8.24,5.89,7.22,2.38-.43,10.47,2.72,20.32,6,6.82,8.68,11.91,15.41-.93,17.86s-18,4.71-13.15,9c-6.58,2-3.86,5.66-3.62,5.95-8.66,1.62-17.81,3-25,3.64-12,1-20.81-2.42-23.31-6.33h0a3.7,3.7,0,0,1,.24-4.69c-6.06-6.07-5.89-17.05-4.23-27.52.68-4.31,1.62-8.52,2.48-12.26,2.67-.28,5.39-.89,7.23-2.23a14.45,14.45,0,0,0,3.52-3.55,3.92,3.92,0,0,0,.64-3.8A15.36,15.36,0,0,0,69.8,170c-.8-.75.65-2-1.46-4.25.15-2.51-1-7.17-.35-9.25a24.23,24.23,0,0,0,2.77-6.6V162h4.36v-8.72h4.36V162h4.36v4.09a3.19,3.19,0,0,0-1.34,2.3,10.6,10.6,0,0,0,0,2.32v0a20,20,0,0,0,2.31,7c1.07,2.22,2,6.18,6.33,8.82C94.19,188.44,96.64,188.72,98.29,187.67Z"/><path class="cls-5" d="M114.1,164c1.21,3.38,1.24,3.38,1.35,13.78,0,4.65,3.91,4,13,5.8L131,184c7.36,1.27,11,1.11,18.45-.47l1.09-.22c7.58-1.48,12.2-.75,17.61.22,6.08-3.58-1.82-10.2-10.93-20.86s3.11-2.91,5.8-8.57c0,0,.25.45.71,1.32,1.51,2.87,5.36,10.29,10.3,20.62,6.41,13.43,12.49,22.95-4.46,29.56-4.69,1.83-11,1.69-17.76.55a154.92,154.92,0,0,1-22.47-6.07c-9.85-3.3-17.94-6.45-20.32-6-5.68,1-5.41-4-5.89-7.22a17.9,17.9,0,0,1,.24-5.28,50.11,50.11,0,0,0,.58-5.86,20.82,20.82,0,0,1-1.75-3.78c-1.89-1.43-3.17-3.18-4.79-4.59-1.16-1-2-1.76-2.14-2.56a1.62,1.62,0,0,1,.1-1c.31-.72.53-1.13,1-1.13l0-1.36c-.93,0-1.57.07-2.41,0v-.05c0-.87.67-1.33,3.78-2.15a28.07,28.07,0,0,1,5.74-.88c1.82-.2,2,0,3.44,1.51s2.5,2.06,4.18,4.29C111.05,161.88,113,161.29,114.1,164Z"/><path class="cls-1" d="M27.05,264.28c0,.38,0,.75,0,1.14l-2.23-.06c0-1.47.08-2.91.14-4.26.26-5.62.83-10.1,1.71-11.26,1.69-.08,2.76-2,3.22-4.15A4,4,0,0,1,34.51,248c-1.29.65-2.71,2.5-3.95,4.86A31.3,31.3,0,0,0,27.05,264.28Z"/><path class="cls-6" d="M68.62,101.8a1.32,1.32,0,0,1,.42,1.68c-.25.77-.57,1.16-1,1.07a1.43,1.43,0,0,1-.7-.44,3,3,0,0,1-1,.31,2.16,2.16,0,0,1-.88-.08s-.59-.45.13-.63c2-.37,2.55-1.2,1.85-2.52a1.74,1.74,0,0,1,.76.31Z"/><path class="cls-7" d="M95.89,90.9a3.05,3.05,0,0,1-.3-1.76c.15-1.12.42-1.45,1.79-2.1s2.3-1.31,3.89-.27,2.24,1.24,3,2.54a21,21,0,0,0,2.52,4.22,1.78,1.78,0,0,0,.78.49,15.38,15.38,0,0,0,3.51.15c3-.08,7.08-.38,10-.68a56.56,56.56,0,0,0,8.24-1.93l1.36-.35a34.37,34.37,0,0,1,5.86-1c-1.93-2.08-2.62-6.66-2.62-6.66,2.07-2.56,4.43-5.37,5.48-8,7.6,6,7.47,16.41,6.79,23.35a4.45,4.45,0,0,1-3.74,4.22c-3.39.84-8.08-.43-9.84-.43a4.32,4.32,0,0,0-.6-.61c-4.89-4.29-14.8-4.3-20.39.38,0,0-7.65.9-10.39-.34s.64-2.63,0-2.84a18.91,18.91,0,0,0-5.84-.38c-1.18-.94-1.62-2.08-.54-2.73a7.55,7.55,0,0,1,2.69-.7c.69-.08,1.35-.12,1.87-.14,1.28-.07,2.25-.64.13-.87a22.33,22.33,0,0,0-4,0c-.93,0-1.71-.31-1.82-1.32A1.22,1.22,0,0,1,94.06,92a3.37,3.37,0,0,1,2.14-.62A1.81,1.81,0,0,1,95.89,90.9Zm3.22-1.13c-2.26.68-1.9,1.56-2.57,1.58,2.33,0,2.54-.63,4.16-.33A6.14,6.14,0,0,1,99.11,89.77Z"/><path class="cls-8" d="M84,30.79c-.75-2.77.16-3.11,1.38-2.59a7.89,7.89,0,0,1,1.36.83,28.8,28.8,0,0,0,2.06,9.59h0C85.87,39.59,85.07,34.62,84,30.79Z"/><path class="cls-7" d="M56.69,127.19c.53-10,2.06-21.19,6-24.43a4.61,4.61,0,0,0,1.12,2.11,7.25,7.25,0,0,0,2.89,1.7l3.83,24.83h0C70,141.47,69.47,150.31,66,154.12a4.13,4.13,0,0,0-.68,1c-3.49-1.46-7-2-8.83-.42,0-2.36.18-4.18,0-12.82C56.38,138.7,56.35,133.15,56.69,127.19Z"/><path class="cls-9" d="M101.28,140.17v-4.36h1.79c-.18.66-.35,1.32-.52,1.95q-.14.5-.24,1c-.13.48-.25,1-.35,1.43-.08.28-.15.57-.21.84-.21.84-.39,1.65-.57,2.44-.12.52-.23,1-.34,1.54-.54,2.54-1,4.79-1.26,6.65,0,.36-.11.71-.15,1,0,0,0,.05,0,.06,0,.3-.08.57-.11.83s0,.35-.06.51,0,.27,0,.4a1.76,1.76,0,0,0,0,.38c0,.12,0,.24,0,.35a1.93,1.93,0,0,0,0,.23c0,.12,0,.22,0,.32s0,.34,0,.47l-.37.15a1,1,0,0,0-.23.11,5.64,5.64,0,0,0-.55.28,2.81,2.81,0,0,0-.38.26,2.19,2.19,0,0,0-.22.2.9.9,0,0,0-.16.19.66.66,0,0,0-.1.18v0H83.84V162H79.48v-8.72H75.12V162H70.76V149.88h0l.2-.73c0-.07,0-.17.06-.26h4.1v-4.35h4.36v-4.36h4.36v-4.36h4.37v4.36Zm-13.07,8.71v-4.35H83.84v4.35Z"/><path class="cls-9" d="M91.71,163.8a.65.65,0,0,1-.21-.23A1.46,1.46,0,0,0,91.71,163.8Z"/><path class="cls-10" d="M21.66,244.87a90.47,90.47,0,0,1,2.12-12.37,2.62,2.62,0,0,0,.68,1.87c1.08,1.48-.29,5.22,0,7.68.16,1.39.09,3.71.41,5.46a21.62,21.62,0,0,0-1.24,3.14C21.28,248.53,21.28,248.44,21.66,244.87Z"/><path class="cls-11" d="M94.31,173.43c-1-2.31-5.7-6.39-8.23-6.42s-3.59,1.53-3.59,3.67a10.6,10.6,0,0,1,0-2.32,3.19,3.19,0,0,1,1.34-2.3,3.41,3.41,0,0,1,.44-.3,0,0,0,0,1,0,0,3.15,3.15,0,0,1,.55-.28v0c.18-.07.37-.16.57-.23s.4-.14.62-.21h0c4.18.13,7.14,3.1,8.63,6.41s2,5.8,3.1,8.54,2.54,5,2.1,5.76a4.36,4.36,0,0,1-1.63,2h0c1.13-1.09.41-3.77-.66-5.73S95.26,175.74,94.31,173.43Z"/><path class="cls-9" d="M71,149.14l-.2.73C70.83,149.64,70.89,149.39,71,149.14Z"/><path class="cls-9" d="M91.15,162.15a2.55,2.55,0,0,0,.06.81l0,0a1.06,1.06,0,0,0,.09.25,1,1,0,0,0,.18.31.65.65,0,0,0,.21.23h0A1.51,1.51,0,0,0,92,164c-.32.06-.67.09-1,.15a39.14,39.14,0,0,0-3.94.58,4.47,4.47,0,0,0-.63.16.88.88,0,0,0-.29.07h0c-.22.07-.43.13-.62.21a4.84,4.84,0,0,0-.57.23v0a2.59,2.59,0,0,0-.55.28,0,0,0,0,0,0,0,2.28,2.28,0,0,0-.44.3V162h7.35A.42.42,0,0,0,91.15,162.15Z"/><path class="cls-10" d="M70.54,131.4l.22,1.45a.83.83,0,0,0,.81.7h.11a.84.84,0,0,0,.7-.82l.51,0A77.24,77.24,0,0,1,71,148.88c0,.09,0,.19-.06.26-.07.25-.13.5-.2.73h0a24.23,24.23,0,0,1-2.77,6.6,28.56,28.56,0,0,0-2.72-1.34,4.13,4.13,0,0,1,.68-1c3.52-3.81,4.07-12.65,4.58-22.72Z"/><path class="cls-1" d="M15.11,317.58C16.87,321.43,3.53,325.94,0,332.5c0,0,.22-4.06,1.78-16.11s2.79-25.43,5-41.25a2.5,2.5,0,0,1,1.61-2.29c-.78.76,2.55,1.66,6.53,2.32h0c.88,25.84-2.64,38.18,0,42.09C15,317.38,15.06,317.48,15.11,317.58Z"/><path class="cls-11" d="M53.81,176.8c-3.51-2.1-12-4.19-15.8-3.05s-5.17,2.19-5.53,3.37a7.49,7.49,0,0,1,1.41-3,8.4,8.4,0,0,1,2.57-2.2c2.26-1,7.73.53,11.47,1.27a41.44,41.44,0,0,0,13.92.19c5.59-.74,8.63-.06,10.66,1.89a3.07,3.07,0,0,1,.65.9,3.92,3.92,0,0,1-.64,3.8c.65-1.29-.35-4.1-5.62-2.82S57.32,178.89,53.81,176.8Z"/><path class="cls-10" d="M34.51,248c3.42-.25,3.42,1,2.57,2.22a9.94,9.94,0,0,1-1.53,1.69,5.39,5.39,0,0,1-2.23,1.44,3.08,3.08,0,0,1-1.61-.06,7.63,7.63,0,0,1-1.15-.43C31.8,250.45,33.22,248.6,34.51,248Z"/><path class="cls-7" d="M63.19,93.53c-.94-.18.22.91.22.91a4.25,4.25,0,0,0-1.07,0c-2.41-2.66-1.53-4.28-.05-4.42a3,3,0,0,1,1.9.34A17.84,17.84,0,0,1,66,91.57l.18.12C66.12,93.44,64.14,93.7,63.19,93.53Z"/><path class="cls-12" d="M140,170.59s4.38,10.19,10.53,12.74l-1.09.22c-7.44,1.58-11.09,1.74-18.45.47h0c3.76-1.78,2.19-6.26-1.74-9s-3.71-8.37-1.41-10-.13-9.73-1.35-11.56-1.68-4.52-1-4.86,3-.46,4.66,8.25S136.3,167.21,140,170.59Z"/><path class="cls-7" d="M86.77,29A52.06,52.06,0,0,1,87,21.27c.24-2.41.94-5.69.94-5.69.14,2.15.84,3.31,2.29,3.5,3.78.49,11.22-.24,16.2-.15V16.85A4,4,0,0,0,110,19.09s-.7-3.75-.35-4.95c1,2.8,4.17,6.6,4.45,9.93a27.88,27.88,0,0,1,0,7.43c-.31,2.08,1-.16,2.69-1.25,3.27-2.22,4.42-1.65,4.53.3a13.32,13.32,0,0,1-.43,3.52c-.93,4.28-4.35,6-6.92,5.64a10.58,10.58,0,0,0-.43,4.22,11.27,11.27,0,0,1,0,3.23c-.45,4.36-3,8.74-5.4,11.77a6.08,6.08,0,0,0-2.84-1.43A10.24,10.24,0,0,0,102,53.23c2.79-2.1-3.24-3.88,1-5.2,1.84-.55,1.35-2.26-.18-1.67-4,.93-7,.74-9.27-.85-1.8-1.24-3.22-3.34-4.51-6.4-.06-.17-.14-.32-.19-.49A28.8,28.8,0,0,1,86.77,29Z"/><path class="cls-1" d="M46.37,392.4c1.45,0,2.8-1,4-3.92a47.75,47.75,0,0,1,.14,4.84,4.35,4.35,0,0,1-1.36,2.88c-2.15,2-4,2.24-7.65,0-.95-.58-2.11-1.37-3.34-2.18-2.89-1.89-6.18-3.9-8.4-3.67h0a21.6,21.6,0,0,0,2.67-3.93c1.35,0,7.84,3.15,10.6,4.79A6.87,6.87,0,0,0,46.37,392.4Z"/><path class="cls-13" d="M24.92,261.1c-.06,1.35-.11,2.79-.14,4.26,0,1.95-.05,4,0,6a35,35,0,0,0-4.73-.88C22.24,265.91,24.92,261.1,24.92,261.1Z"/><path class="cls-3" d="M16.77,272.64c2.51-3.2,4.55-15.07,6.86-22a21.62,21.62,0,0,1,1.24-3.14c.23,1.36.73,2.37,1.76,2.33-.88,1.16-1.45,5.64-1.71,11.26,0,0-2.68,4.81-4.9,9.39a35,35,0,0,1,4.73.88c0,1.62.06,3.24.12,4.81-1,0-2.38-.07-4-.22-1.85-.18-4-.46-5.92-.79-4-.66-7.31-1.56-6.53-2.32C10.19,272.11,13.28,272.64,16.77,272.64Z"/><path class="cls-11" d="M113.4,418.43c-3.5-1.43-3.81-5.3-2.07-8.07a5.51,5.51,0,0,0,.8-2.09h.09c-.41,2.27-.69,7.32,10.45,7.39,8.24-.1,10-1.22,11.7-4.28,1.53,2.45.87,6.72-2.06,7.54S116.9,419.85,113.4,418.43Z"/><path class="cls-4" d="M75.12,144.53v4.35H71a77.24,77.24,0,0,0,1.87-16.14,104,104,0,0,0-.25-11c-.32-3.37.61-3.93,2-3.86s4.73,1,7.17-2.5c.8,3.6,2,6.18,5.2,6.35s8.07-1.71,12.61-4.37a56.71,56.71,0,0,0,7.12-5c-1.47,7.2-.92,13.79-2.86,20.46-.28,1-.57,2-.83,3h-1.79v4.36H88.21v-4.36H83.84v-4.36H79.48v4.36h4.36v4.36H79.48v4.36Z"/><path class="cls-10" d="M94.05,92c0-.69.9-1.13,1.84-1.08a1.81,1.81,0,0,0,.31.47,3.37,3.37,0,0,0-2.14.62Z"/><path class="cls-10" d="M50.35,388.48c-1.18,2.92-2.53,3.92-4,3.92,2.33-.53.61-3.34-.5-10.48s1.11-12,10-20.7,9.48-23.44,7.94-38.45c2.06-.11,4.1-.16,6-.13.21,12,.3,26.75-6.83,36.13S50.25,380.85,50.35,388.48Z"/><path class="cls-14" d="M70.76,132.85l-.22-1.45-3.83-24.83-.34-2.15a3,3,0,0,0,1-.31,1.43,1.43,0,0,0,.7.44l.36,2.33.91,5.87,3.07,19.86s0,.07,0,.11a.84.84,0,0,1-.7.82h-.11A.83.83,0,0,1,70.76,132.85Z"/><path class="cls-14" d="M59.14,46.91,66,91.56h0a17.84,17.84,0,0,0-1.83-1.21L61.46,72.63l-.81-5.19-.79-5.19h0l-.79-5.2-.8-5.18-.73-4.71a.8.8,0,0,1,.67-.92A.84.84,0,0,1,59.14,46.91Z"/><path class="cls-10" d="M157.17,162.69c9.11,10.66,17,17.28,10.93,20.86-5.41-1-10-1.7-17.61-.22-6.15-2.55-10.53-12.74-10.53-12.74s2-3.93,3.36-7c1.44-3.31,6.69-9.66,9.12-12.63s6.49.2,10.53,3.18C160.28,159.78,148.06,152,157.17,162.69Z"/><path class="cls-4" d="M154.74,138.18c4.78,4.39,11.34,15.36,8.94,17.26-.46-.87-.71-1.32-.71-1.32-4-3-8.1-6.16-10.53-3.18s-7.68,9.32-9.12,12.63c-1.34,3.09-3.36,7-3.36,7-3.66-3.38-8.1-5.07-9.8-13.77s-3.92-8.58-4.66-8.25-.27,3.05,1,4.86,3.64,9.94,1.35,11.56-2.5,7.22,1.41,10,5.5,7.26,1.74,9h0l-2.48-.47c-9.11-1.76-13-1.15-13-5.8-.11-10.4-.14-10.4-1.35-13.78A44.73,44.73,0,0,0,112,159a28.14,28.14,0,0,0,2.41-3.37V162h4.37V148.88h-1a80.59,80.59,0,0,0,5.25-24.06c.27-7.77-.61-7.3,3-7.51,1.87.25,6.55-1.06,10.3-.57a6.24,6.24,0,0,1,4,1.79,8.32,8.32,0,0,1,6.23,3.37,20.76,20.76,0,0,1,3.42,6.29C154.66,130.35,154.74,138.18,154.74,138.18Z"/><path class="cls-15" d="M149.18,223.68c2.83,10,9.15,21.81,4.67,28.13A52.26,52.26,0,0,0,148.24,262s.92-9.54-3.15-8.51c1.63-12.24-4.29-18.36-4.24-27.91C145.28,223.74,147.69,222.65,149.18,223.68Z"/><path class="cls-16" d="M146.46,106a12,12,0,0,0-4-2.93h0a4.45,4.45,0,0,0,3.74-4.22c.68-6.94.81-17.34-6.79-23.35l2.93-.8c0,.18.08.33.12.46,4.42,4.12,26,23.16,9.21,29.71,3.85,2.36,1.18,9.67-2.51,9.33A10.32,10.32,0,0,0,146.46,106Z"/><path class="cls-12" d="M151.76,206.17s3.1,5.47-3.42,10.36c0,0,4.9,4.9.84,7.15-1.49-1-3.9.06-8.33,1.86-.91.38-1.91.78-3,1.19-3.68,1.42-14.51,4-26.25,6.15-.24-.29-3-4,3.62-5.95-4.89-4.26.3-6.52,13.15-9s7.75-9.18.93-17.86A154.92,154.92,0,0,0,151.76,206.17Z"/><path class="cls-17" d="M146.46,106a10.32,10.32,0,0,1,2.66,8.19c0,.37-.11.75-.18,1.13-.61,2.83-.09,6.06-2.48,6.54a8.32,8.32,0,0,0-6.23-3.37,6.24,6.24,0,0,0-4-1.79c5.71-2.63,3.69-10.17,3.69-10.17C146.33,109.38,146.46,106.3,146.46,106Z"/><path class="cls-18" d="M51.23,268.1c.42-1.1.87-2.19,1.36-3.24,5.82-12.44,4.38-12.44,2.76-19s-.62-13,7.93-15.71h0c2.5,3.91,11.3,7.34,23.31,6.33,7.17-.61,16.32-2,25-3.64,11.74-2.18,22.57-4.73,26.25-6.15,1.1-.41,2.1-.81,3-1.19,0,9.55,5.87,15.67,4.24,27.91,4.07-1,3.15,8.51,3.15,8.51a38,38,0,0,0-3.15,14.32c0,9,1.41,16.52-3.07,20.61-2.13,12.39-1.48,20.18-3.79,26a8.62,8.62,0,0,1-6.25,5.45c-4.3,1.27-9.68.35-12.61-3.33-3.92-5-5.85-6.76-7.94-6.61a4.13,4.13,0,0,0-1.23.29c-1.62-9.38-6.09-21.2-10-29.56-.39-.83-.75-1.6-1.11-2.31-3.28-6.56-5.49-9.11-6.23-16.46-4.49,4.48-3.88,14.28-8.37,22.84s-12.44,24.67-8.36,30a35.89,35.89,0,0,0-6.32-.54c-1.93,0-4,0-6,.13-2.46.1-4.95.27-7.35.41-6.81.42-9.06.42-12.93-3.66-1.84-1.83,1.84-13.06,2.24-19.38.35-5.42.84-18.33,4.65-29.74C50.66,269.62,50.93,268.85,51.23,268.1Z"/><path class="cls-19" d="M146.46,106c0,.26-.13,3.34-6.5.53,0,0,2,7.54-3.69,10.17-3.75-.49-8.43.82-10.3.57,3.51-.18,10.93-9.59,6.61-14.64,1.76,0,6.45,1.27,9.84.43h0A12,12,0,0,1,146.46,106Z"/><path class="cls-16" d="M142.3,74.73l-2.93.8c-1.05,2.61-3.41,5.42-5.48,8-2.66,3.3-4.86,6.19-3.24,7.7l-1.36.35c-6.33-4-12-19.23-10.91-26.51a4.67,4.67,0,0,1-2.78-2.39c-1.18-2.16-.81-5.18,5.78-6.26,10.53-1.72-7.73-9.24-7.73-9.24h0a11.27,11.27,0,0,0,0-3.23c6.25,4.4,19.48,8.71,21.31,14.79C140.07,63.4,141.67,72,142.3,74.73Z"/><path class="cls-10" d="M138.23,322.9a59.18,59.18,0,0,1-1.93,35.16c-3.67,9.48-7.84,17.44-7.13,20.29.47,1.87,1.44,4.37,1.3,7h0a17.11,17.11,0,0,0-3.09-1.1c1.67-.39.17-4.41-1.57-6.86s-3.06-6,4.66-20,3.2-19.58,1.52-29.1a8.62,8.62,0,0,0,6.25-5.45Z"/><path class="cls-20" d="M129.09,389.67c2.53,7,9,16.21,5.28,21.72-1.74,3.06-3.46,4.18-11.7,4.28-11.14-.07-10.86-5.12-10.45-7.39,0-.25.09-.47.13-.64a33.18,33.18,0,0,0,.38-7.28l3.12-.09c.09,1.17.48,1.5.88,1.44.61-.11,2.75-2.35,9.16-1s3.58-3.57,0-12.2A15.56,15.56,0,0,1,129.09,389.67Z"/><path class="cls-10" d="M133.89,83.51s.69,4.58,2.62,6.66a34.37,34.37,0,0,0-5.86,1C129,89.7,131.23,86.81,133.89,83.51Z"/><path class="cls-7" d="M132.58,102.67c4.32,5-3.1,14.46-6.61,14.64s-2.76-.26-3,7.51a80.59,80.59,0,0,1-5.25,24.06c-.25.61-.49,1.21-.75,1.79-.16.38-.33.74-.51,1.1a3.39,3.39,0,0,1-.18.39c-.13.29-.27.57-.43.86s-.35.71-.54,1c-.3.54-.61,1.07-.92,1.58h0A28.14,28.14,0,0,1,112,159c-.53-1-1-1.93-1.44-2.69-.93-1.75-2.76-1.48-4.72-1.69a12.53,12.53,0,0,0-5.61,1.15c-.37.15-.74.28-1.07.42,0-.13,0-.29,0-.47s0-.2,0-.32a1.93,1.93,0,0,1,0-.23c0-.11,0-.23,0-.35a1.76,1.76,0,0,1,0-.38c0-.13,0-.27,0-.4s0-.33.06-.51.07-.53.11-.83c0,0,0,0,0-.06q.07-.51.15-1c.29-1.86.72-4.11,1.26-6.65.11-.51.22-1,.34-1.54.18-.79.36-1.6.57-2.44q.09-.42.21-.84c.1-.47.22-1,.35-1.43q.1-.47.24-1c.17-.63.34-1.29.52-1.95.26-1,.55-2,.83-3,1.94-6.67,1.39-13.26,2.86-20.46a37.71,37.71,0,0,1,1.39-5.07,10.4,10.4,0,0,1,1.65-3,10.87,10.87,0,0,1,1.79-1.86c5.59-4.68,15.5-4.67,20.39-.38A4.32,4.32,0,0,1,132.58,102.67Z"/><path class="cls-5" d="M132,328.35c1.68,9.52,6.19,15.13-1.52,29.1s-6.39,17.53-4.66,20,3.24,6.47,1.57,6.86a26,26,0,0,0-14,.25c.12-.41.21-.78.27-1.09.47-2.31,2.78-6.83,1.54-12.74s-6.44-29.16-4.39-38.44.61-13.84.61-13.84v0c2.09-.15,4,1.65,7.94,6.61C122.3,328.7,127.68,329.62,132,328.35Z"/><path class="cls-1" d="M130.46,385.39h0a8.69,8.69,0,0,1-1.38,4.28,15.56,15.56,0,0,0-3.2-1.19,21.8,21.8,0,0,0-10.68-.2,7.17,7.17,0,0,0-.82.27c-.73.29-1.16.22-1.38-.07-.53-.67,0-2.49.39-3.94a26,26,0,0,1,14-.25A17.11,17.11,0,0,1,130.46,385.39Z"/><path class="cls-21" d="M129.29,91.56a56.56,56.56,0,0,1-8.24,1.93c-2.92.3-7,.6-10,.68,2-1.48.39-5.87.89-6.92,0,0,0,0,0,0,.18-.34.35-.69.53-1,1.19-2.39,1.43-4.62.69-6C116.32,76.67,115,69.1,112,63.66l3.64-1a4.67,4.67,0,0,0,2.78,2.39C117.29,72.33,123,87.54,129.29,91.56Z"/><path class="cls-22" d="M125.89,388.48c3.58,8.63,6.41,13.53,0,12.2s-8.55.92-9.16,1c-.4.06-.79-.27-.88-1.44a11.72,11.72,0,0,1,.17-2.64c.5-3.37,1-8.29-.81-9.35A21.8,21.8,0,0,1,125.89,388.48Z"/><path class="cls-23" d="M115,3.42c4.77.42,11.36,10.5,9.72,16.71-.91,3.35-3.16,6.94-3.32,10.42h0c-.11-1.95-1.26-2.52-4.53-.3-1.65,1.09-3,3.33-2.69,1.25a27.88,27.88,0,0,0,0-7.43c-.28-3.33-3.49-7.13-4.45-9.93-.35,1.2.35,4.95.35,4.95a4,4,0,0,1-3.59-2.24v2.08c-5-.09-12.42.64-16.2.15-1.45-.19-2.15-1.35-2.29-3.5,0,0-.7,3.28-.94,5.69A52.06,52.06,0,0,0,86.77,29a7.89,7.89,0,0,0-1.36-.83c0-.16.4-1.7-.81-5.57-.5-1.61-1-3.31-.33-8.13S85.21.78,99.07.82C105.09-1.08,114.4.54,115,3.42Z"/><path class="cls-21" d="M113.65,47.16s18.26,7.52,7.73,9.24c-6.59,1.08-7,4.1-5.78,6.26l-3.64,1a16.09,16.09,0,0,0-3.73-4.73c2.38-3,5-7.41,5.4-11.77Z"/><path class="cls-9" d="M118.73,148.88V162h-4.37v-6.31h0c.32-.51.62-1,.92-1.58.19-.34.38-.7.54-1s.3-.57.43-.86a3.39,3.39,0,0,0,.18-.39c.18-.36.35-.72.51-1.1.26-.58.52-1.18.75-1.79Z"/><path class="cls-9" d="M116.94,150.67c.26-.58.5-1.18.75-1.79C117.46,149.49,117.2,150.09,116.94,150.67Z"/><path class="cls-9" d="M116.43,151.77c.18-.36.35-.72.51-1.1C116.78,151.05,116.61,151.41,116.43,151.77Z"/><path class="cls-4" d="M115.82,153c.16-.29.3-.57.43-.86C116.12,152.45,116,152.73,115.82,153Z"/><path class="cls-20" d="M115.21,388.28c1.84,1.06,1.31,6,.81,9.35a11.72,11.72,0,0,0-.17,2.64l-3.12.09a21.7,21.7,0,0,0-1-5.69c-.91-2.95-.21-5.25,1.28-6.19.22.29.65.36,1.38.07A7.17,7.17,0,0,1,115.21,388.28Z"/><path class="cls-9" d="M114.36,155.65c.31-.51.62-1,.92-1.58C115,154.61,114.68,155.14,114.36,155.65Z"/><path class="cls-24" d="M95.26,50.5A15.86,15.86,0,0,1,102,53.23a10.24,10.24,0,0,1,3.42,4.27,6.08,6.08,0,0,1,2.84,1.43A16.09,16.09,0,0,1,112,63.66c3,5.44,4.36,13,1.21,16.55-.65-1.25-2.09-1.79-4.32-1.09h0c9.42-6.28,1.32-12.22-3.94-13.91s-9.93-3.51-8.41-6-6.23-5.32-14.07-4.11-9,5.87-7.9,6.76c-4.92,4.93-4.22,8.24-3.51,11.35.16.63.3,1.26.4,1.88a8.94,8.94,0,0,1,.09,1.77c-2.47-2.28-6.94-11.36.65-17.7a10.88,10.88,0,0,0-2.2,0,10.3,10.3,0,0,1,6-3.5,2.71,2.71,0,0,0-2.07-.84,7.39,7.39,0,0,1,5.91-1.52A2.65,2.65,0,0,0,78.07,52c.56-.49,5.24-1.76,10.64-1.93h0A30.1,30.1,0,0,1,95.26,50.5Z"/><path class="cls-5" d="M113.17,80.21c.74,1.37.5,3.6-.69,6-.18.33-.35.68-.53,1,0,0,0,0,0,0-1.46,2.76-3,5.23-5.18,6.28a21,21,0,0,1-2.52-4.22c-.73-1.3-1.39-1.49-3-2.54s-2.5-.37-3.89.27-1.64,1-1.79,2.1a3.05,3.05,0,0,0,.3,1.76c-.94-.05-1.81.39-1.84,1.08h0a1.22,1.22,0,0,0-.39,1.13c.11,1,.89,1.28,1.82,1.32a6.71,6.71,0,0,1,2,1,7.55,7.55,0,0,0-2.69.7c-1.08.65-.64,1.79.54,2.73-1.49,2.26.38,3.39,2.19,3,0,3.55-10.94,6.12-10.94,6.12,2.65,2.21,5,1.48,8.37.13s-3.2,9,4.66,9.2C95.1,120,90.36,121.88,87,121.71s-4.4-2.75-5.2-6.35c-.51-2.27-.84-5-1.43-7.69a9.85,9.85,0,0,1-4-2.09C73.25,102.89,72,98.38,71,93.75c0-.22-.09-.45-.14-.67-1.17-5.57.52-12.09.62-16.18a8.94,8.94,0,0,0-.09-1.77c-.1-.62-.24-1.25-.4-1.88h0c6-3.21,11.6-2.35,17.78-1.88,5.24.39,8.6.86,12.91-.36s-1.27,12.35,5.08,9a11.89,11.89,0,0,1,2-.87C111.08,78.42,112.52,79,113.17,80.21Z"/><path class="cls-11" d="M112.73,400.36a33.18,33.18,0,0,1-.38,7.28c0,.17-.08.39-.13.64h-.09a9.34,9.34,0,0,0-1.11-5.34c-.82-1.74-2.54-5.51.71-8.26A21.7,21.7,0,0,1,112.73,400.36Z"/><path class="cls-5" d="M114.1,164c-1.08-2.68-3-2.09-3,.06-1.68-2.23-2.76-2.76-4.18-4.29s-1.62-1.71-3.44-1.51a28.07,28.07,0,0,0-5.74.88c-.61-.61-.76-1.09-.59-1.5v0c0-.06.06-.13.1-.18l.16-.19a2.19,2.19,0,0,1,.22-.2l.38-.26a5.64,5.64,0,0,1,.55-.28l.23-.11.37-.15c.33-.14.7-.27,1.07-.42a12.53,12.53,0,0,1,5.61-1.15c2,.21,3.79-.06,4.72,1.69.4.76.91,1.65,1.44,2.69A44.73,44.73,0,0,1,114.1,164Z"/><path class="cls-25" d="M111.94,87.25c-.5,1,1.06,5.44-.89,6.92a15.38,15.38,0,0,1-3.51-.15,1.78,1.78,0,0,1-.78-.49C109,92.48,110.48,90,111.94,87.25Z"/><path class="cls-10" d="M111.59,102.44a10.87,10.87,0,0,0-1.79,1.86c-3.67-.69-5.9,1-8.4-.92s-2.4-.71-3.85-1.49c-1.81.38-3.68-.75-2.19-3a18.91,18.91,0,0,1,5.84.38c.64.21-2.73,1.58,0,2.84S111.59,102.44,111.59,102.44Z"/><path class="cls-23" d="M104.91,65.2c5.26,1.69,13.36,7.63,3.94,13.91h0a11.89,11.89,0,0,0-2,.87c-6.35,3.37-.75-10.19-5.08-9s-7.67.75-12.91.36C82.63,70.9,77,70,71,73.25h0c-.71-3.11-1.41-6.42,3.51-11.35-1.07-.89.07-5.55,7.9-6.76S98,56.83,96.5,59.25,99.65,63.52,104.91,65.2Z"/><path class="cls-10" d="M109.8,104.3a10.4,10.4,0,0,0-1.65,3,37.71,37.71,0,0,0-1.39,5.07,56.71,56.71,0,0,1-7.12,5c-7.86-.18-1.27-10.55-4.66-9.2s-5.72,2.08-8.37-.13c0,0,10.9-2.57,10.94-6.12,1.45.78,1.36-.44,3.85,1.49S106.13,103.61,109.8,104.3Z"/><path class="cls-10" d="M102.8,46.36c1.53-.59,2,1.12.18,1.67-4.25,1.32,1.78,3.1-1,5.2a15.86,15.86,0,0,0-6.71-2.73c-.28-.7-.61-1.58-.92-2.47s-.61-1.75-.81-2.52C95.83,47.1,98.76,47.29,102.8,46.36Z"/><path class="cls-21" d="M103.9,175.72a50.11,50.11,0,0,1-.58,5.86c-1.25,2.3-2,1.16-3.4,4.12.44-.77-1-3-2.1-5.76,1-.28.27-4.15,1.83-2.61s3,.35,2.5-5.39A20.82,20.82,0,0,0,103.9,175.72Z"/><path class="cls-4" d="M102.55,137.76q-.14.5-.24,1Q102.42,138.26,102.55,137.76Z"/><path class="cls-16" d="M102.15,171.94c.47,5.74-1,6.95-2.5,5.39s-.83,2.33-1.83,2.61c-1.07-2.74-1.62-5.24-3.1-8.54s-4.45-6.28-8.63-6.41a.88.88,0,0,1,.29-.07,5.29,5.29,0,0,1,.63-.16,39.14,39.14,0,0,1,3.94-.58c.38-.06.73-.09,1-.15a6,6,0,0,0,3.22.76c.18.8,1,1.55,2.14,2.56C99,168.76,100.26,170.51,102.15,171.94Z"/><path class="cls-9" d="M102,140.15q-.12.42-.21.84C101.81,140.72,101.88,140.43,102,140.15Z"/><path class="cls-9" d="M100.84,145c.11-.51.22-1,.34-1.54C101.06,144,101,144.46,100.84,145Z"/><path class="cls-10" d="M100.7,91c-1.62-.3-1.83.31-4.16.33.67,0,.31-.9,2.57-1.58A6.14,6.14,0,0,0,100.7,91Z"/><path class="cls-10" d="M99.51,94.44c2.12.23,1.15.8-.13.87-.52,0-1.18.06-1.87.14a6.71,6.71,0,0,0-2-1A22.33,22.33,0,0,1,99.51,94.44Z"/><path class="cls-9" d="M99.58,151.62q-.08.54-.15,1C99.47,152.33,99.53,152,99.58,151.62Z"/><path class="cls-9" d="M99.42,152.73c0,.3-.08.57-.11.83C99.34,153.3,99.38,153,99.42,152.73Z"/><path class="cls-9" d="M99.25,154.07c0,.13,0,.27,0,.4C99.22,154.34,99.23,154.21,99.25,154.07Z"/><path class="cls-9" d="M99.17,154.85c0,.12,0,.24,0,.35C99.14,155.09,99.16,155,99.17,154.85Z"/><path class="cls-4" d="M99.13,155.43c0,.12,0,.22,0,.32C99.12,155.65,99.12,155.55,99.13,155.43Z"/><path class="cls-9" d="M99.11,156.22l-.37.15Z"/><path class="cls-9" d="M98.74,156.37l-.23.11A1,1,0,0,1,98.74,156.37Z"/><path class="cls-13" d="M97.63,181.93c1.07,2,1.79,4.64.66,5.73h0c-1.65,1.05-4.1.77-7.16-1.1-4.31-2.64-5.26-6.6-6.33-8.82a20,20,0,0,1-2.31-7v0c0-2.14,1.17-3.69,3.59-3.67s7.28,4.11,8.23,6.42S96.54,180,97.63,181.93Z"/><path class="cls-9" d="M98,156.76l-.38.26A2.81,2.81,0,0,1,98,156.76Z"/><path class="cls-9" d="M97.36,157.22l-.16.19A.9.9,0,0,1,97.36,157.22Z"/><path class="cls-9" d="M97.2,157.41c0,.05-.06.12-.1.18A.66.66,0,0,1,97.2,157.41Z"/><path class="cls-4" d="M83.84,157.61H97.1c-.17.41,0,.89.59,1.5-3.11.82-3.78,1.28-3.78,2.15v.05c-.27,0-.56,0-.88,0-1.21-.09-1.7.21-1.84.7H83.84Z"/><path class="cls-5" d="M96.32,161.27l0,1.36c-.49,0-.71.41-1,1.13a1.62,1.62,0,0,0-.1,1A6,6,0,0,1,92,164a2.09,2.09,0,0,1-.28-.22h0a1.46,1.46,0,0,1-.21-.23,1,1,0,0,1-.18-.31,1.06,1.06,0,0,1-.09-.25l0,0a2.55,2.55,0,0,1-.06-.81.65.65,0,0,1,0-.18c.14-.49.63-.79,1.84-.7.32,0,.61,0,.88,0C94.75,161.34,95.39,161.29,96.32,161.27Z"/><path class="cls-15" d="M92.88,270.37c.74,7.35,3,9.9,6.23,16.46-6.65,16-14.6,32.89-15.62,36.35s-2,1-7.34,0c-4.08-5.3,3.88-21.41,8.36-30S88.39,274.85,92.88,270.37Z"/><path class="cls-21" d="M94.34,48c.31.89.64,1.77.92,2.47A30.1,30.1,0,0,0,88.72,50,59.11,59.11,0,0,1,94.34,48Z"/><path class="cls-9" d="M91.72,163.81A2.09,2.09,0,0,0,92,164,1.51,1.51,0,0,1,91.72,163.81Z"/><path class="cls-9" d="M91,164.18c.38-.06.73-.09,1-.15C91.68,164.09,91.33,164.12,91,164.18Z"/><path class="cls-9" d="M91.23,163a1.06,1.06,0,0,0,.09.25A1.06,1.06,0,0,1,91.23,163Z"/><path class="cls-9" d="M91.19,162a.65.65,0,0,0,0,.18A.42.42,0,0,1,91.19,162Z"/><rect class="cls-4" x="83.84" y="144.53" width="4.37" height="4.35"/><path class="cls-4" d="M87,164.76a5.29,5.29,0,0,0-.63.16A4.47,4.47,0,0,1,87,164.76Z"/><path class="cls-9" d="M85.46,165.2c-.2.07-.39.16-.57.23A4.84,4.84,0,0,1,85.46,165.2Z"/><path class="cls-9" d="M84.88,165.45a3.15,3.15,0,0,0-.55.28A2.59,2.59,0,0,1,84.88,165.45Z"/><path class="cls-9" d="M84.28,165.76a3.41,3.41,0,0,0-.44.3A2.28,2.28,0,0,1,84.28,165.76Z"/><rect class="cls-9" x="79.48" y="131.45" width="4.35" height="4.35"/><path class="cls-10" d="M80.4,107.67c.59,2.74.92,5.42,1.43,7.69-2.44,3.51-5.74,2.56-7.17,2.5s-2.34.49-2,3.86a104,104,0,0,1,.25,11l-.51,0s0-.08,0-.11L69.3,112.75a3.41,3.41,0,0,1,.66,0C73.16,113.36,76,111.38,80.4,107.67Z"/><path class="cls-8" d="M76.37,105.58a9.85,9.85,0,0,0,4,2.09C76,111.38,73.16,113.36,70,112.8a3.41,3.41,0,0,0-.66,0l-.91-5.87a9.24,9.24,0,0,0,1.87-.06A46.61,46.61,0,0,0,76.37,105.58Z"/><path class="cls-10" d="M76.37,105.58a46.61,46.61,0,0,1-6.11,1.24,9.24,9.24,0,0,1-1.87.06L68,104.55c.44.09.76-.3,1-1.07a1.32,1.32,0,0,0-.42-1.68c.88-.62,2.39-1.3.24-3a5,5,0,0,0-1.11-.43c1.11-.32,1.56-.9,1.29-1.72a10.74,10.74,0,0,1-.9-1,7.19,7.19,0,0,1-1.94-4c-.08-2.53,2.22-2.71,2.35-1s2.13,1.16,2.48,3.06C72,98.38,73.25,102.89,76.37,105.58Z"/><path class="cls-16" d="M73.16,176.14a3.07,3.07,0,0,0-.65-.9c-2-2-5.07-2.63-10.66-1.89a41.44,41.44,0,0,1-13.92-.19c-3.74-.74-9.21-2.23-11.47-1.27,2.91-1.74,7.07-2.66,10.87-4.2,4-1.56,6.25-.88,8.22.71s5.21.91,3.52-1.53c3.77,2.09,4.72,1.48,3.27-.66.58.49,1.06.92,1.38,1.21,1.77,1.47,3.11,1.21,4.27-.34a2.56,2.56,0,0,0,.35-1.35c2.11,2.23.66,3.5,1.46,4.25A15.36,15.36,0,0,1,73.16,176.14Z"/><path class="cls-13" d="M44.62,186.47a18.14,18.14,0,0,1-7.7-2c-3.69-2.2-4.92-4.78-4.44-7.31.36-1.18,1.68-2.21,5.53-3.37s12.29.95,15.8,3.05,7.83,1.62,13.09.32,6.27,1.53,5.62,2.82A14.45,14.45,0,0,1,69,183.49c-1.84,1.34-4.56,1.95-7.23,2.23-3.31.36-6.52.22-7.83.4A46.49,46.49,0,0,1,44.62,186.47Z"/><path class="cls-6" d="M68.86,98.83c2.15,1.67.64,2.35-.24,3l-.39-.3a1.74,1.74,0,0,0-.76-.31.07.07,0,0,0,0-.06c2-1.27.07-1.92-1-3a10.32,10.32,0,0,1,1.33.24A5,5,0,0,1,68.86,98.83Z"/><path class="cls-6" d="M69,96.68c.27.82-.18,1.4-1.29,1.72a10.32,10.32,0,0,0-1.33-.24c1.88-.82.82-2.8-.38-3.22a16.13,16.13,0,0,1,2.1.79A10.74,10.74,0,0,0,69,96.68Z"/><path class="cls-17" d="M68,156.48c-.66,2.08.5,6.74.35,9.25a2.56,2.56,0,0,1-.35,1.35c-1.16,1.55-2.5,1.81-4.27.34-.32-.29-.8-.72-1.38-1.21h0s0,0,0,0c7.69.68.84-6.55,3-11.05A28.56,28.56,0,0,1,68,156.48Z"/><path class="cls-6" d="M66.2,91.69a7.19,7.19,0,0,0,1.94,4,16.13,16.13,0,0,0-2.1-.79,13,13,0,0,0-2.63-.5s-1.16-1.09-.22-.91S66.12,93.44,66.2,91.69Z"/><path class="cls-7" d="M66.42,98.16c1.09,1,3,1.7,1,3a.07.07,0,0,1,0,.06c.7,1.32.14,2.15-1.85,2.52-.72.18-.13.63-.13.63a2.16,2.16,0,0,0,.88.08l.34,2.15a7.25,7.25,0,0,1-2.89-1.7,4.61,4.61,0,0,1-1.12-2.11c-.15-.49-.31-1.05-.5-1.63-.54-1.64-.23-2.6-.9-4.07-.72-1.77-.06-2.48,1-2.62a4.25,4.25,0,0,1,1.07,0,13,13,0,0,1,2.63.5C67.24,95.36,68.3,97.34,66.42,98.16Z"/><path class="cls-26" d="M65.27,155.14c-2.12,4.5,4.73,11.73-3,11.05,0,0,0,0,0,0-1.93-1.62-5.08-3.87-8.08-3.42,1.24-1.37,2.33-6.31,2.2-8.07C58.31,153.11,61.78,153.68,65.27,155.14Z"/><path class="cls-5" d="M63.8,322.77c1.54,15,.92,29.78-7.94,38.45s-11.12,13.56-10,20.7,2.83,9.95.5,10.48A6.87,6.87,0,0,1,43,391.2c-2.76-1.64-9.25-4.77-10.6-4.79,1.13-2.25,2.05-5.65,2.34-11.93.33-7.08,1-24.31,3.3-37.94,1.27-7.59,3-14.07,5.47-17,3.87,4.08,6.12,4.08,12.93,3.66C58.85,323,61.34,322.87,63.8,322.77Z"/><path class="cls-1" d="M51.63,164a5.14,5.14,0,0,1,2.61-1.21c3-.45,6.15,1.8,8.08,3.42h0c1.45,2.14.5,2.75-3.27.66,1.69,2.44-1.55,3.11-3.52,1.53s-4.24-2.27-8.22-.71A4.92,4.92,0,0,1,51.58,164Z"/><polygon class="cls-27" points="60.65 67.44 61.46 72.63 37.9 69.72 41.9 65.12 60.65 67.44"/><path class="cls-5" d="M41.48,235.35a8.25,8.25,0,0,1-5,1.88c-5.61.39-6.5,2.85-6.4,5.81a11.45,11.45,0,0,1-.23,2.65c-.46,2.17-1.53,4.07-3.22,4.15-1,0-1.53-1-1.76-2.33-.32-1.75-.25-4.07-.41-5.46-.29-2.46,1.08-6.2,0-7.68a2.62,2.62,0,0,1-.68-1.87,8.13,8.13,0,0,1,1.57-3.25c1.87-2.87,3.64-4.45,5.33-8.39,6.09-14.21,10.61-25.4,13.94-34.39a46.49,46.49,0,0,0,9.32-.35c1.31-.18,4.52,0,7.83-.4,0,0-7,9.81-13.35,19.8-5.21,8.23-4.33,12.61-3.93,19,.09,1.38.16,2.84.14,4.46A10.41,10.41,0,0,1,41.48,235.35Z"/><polygon class="cls-27" points="59.86 62.25 60.65 67.44 41.9 65.12 45.9 60.52 59.85 62.25 59.86 62.25"/><polygon class="cls-27" points="59.06 57.05 59.85 62.25 45.9 60.52 49.91 55.92 59.06 57.05"/><path class="cls-10" d="M61.77,185.72c-.86,3.74-1.8,7.95-2.48,12.26-1.63,6.8-12.37,17.34-14.79,26.56h0c-.4-6.41-1.28-10.79,3.93-19C54.73,195.53,61.77,185.72,61.77,185.72Z"/><polygon class="cls-27" points="58.26 51.87 59.06 57.05 49.91 55.92 53.9 51.32 53.91 51.32 58.26 51.87"/><polygon class="cls-27" points="57.53 47.16 58.26 51.87 53.91 51.32 57.53 47.16"/><path class="cls-4" d="M56.66,127.19h0c-.34,6-.31,11.51-.25,14.71.18,8.64,0,10.46,0,12.82.13,1.76-1,6.7-2.2,8.07A5.14,5.14,0,0,0,51.63,164a52.84,52.84,0,0,0,1-19.86C51.68,137,53.05,131.4,56.66,127.19Z"/><path class="cls-11" d="M53.2,402.32c1.63.29,1.94,1.93,1.94,5.09S53,412,47.6,414.05s-11.22.19-16.52,3.14-10.5,3-14.89,2.34-14.58-5-15-8.35a4.5,4.5,0,0,1,.44-2.91c-.44,2.35,7.72,4.25,14.85,6.07s11.73-.29,14.68-3.16,10.3-3.36,13.16-3.36S52.19,406.7,53.2,402.32Z"/><path class="cls-20" d="M50.49,393.32c1.8,1.67,3,5.52,2.71,9-1,4.38-6,5.5-8.86,5.5s-10.2.51-13.16,3.36-7.54,5-14.68,3.16-15.29-3.72-14.85-6.07v0c.73-1.33,2.28-2.06,4.35-2.58,3.25-.81,6.22-3.06,9.68-5.19-1,.64.11,1.73,2.55,1.84s3.78,4.27,5.51,2.85,6.94-6.12,10.5-6.62,6.62-.92,3.9-4.53c1.23.81,2.39,1.6,3.34,2.18,3.67,2.24,5.5,2,7.65,0A4.35,4.35,0,0,0,50.49,393.32Z"/><path class="cls-13" d="M51.23,268.1c-.3.75-.57,1.52-.82,2.3h0c-.61.05-1.22.07-1.77.09,0,0-.52-1.07-1.38-2.72h0C48.73,267.91,50.05,268,51.23,268.1Z"/><path class="cls-6" d="M42.76,244.48c2.92.88,2.11,2.86-.16,3a1.69,1.69,0,0,0,0-1.34c-.36-1.33-2.57-1.87-4.2-.5-1,0-2.2.75-3.93,2.28a4,4,0,0,0-4.66-2.26,11.45,11.45,0,0,0,.23-2.65c-.1-3,.79-5.42,6.4-5.81a8.25,8.25,0,0,0,5-1.88,19.94,19.94,0,0,1-1.72,5.28A33.55,33.55,0,0,1,42.76,244.48Z"/><path class="cls-10" d="M42.6,247.51c-.3.5-1.06.83-2.54,1a1.43,1.43,0,0,0-.16-2,2,2,0,0,0-1.46-.8c1.63-1.37,3.84-.83,4.2.5A1.69,1.69,0,0,1,42.6,247.51Z"/><path class="cls-10" d="M39.9,246.47a1.43,1.43,0,0,1,.16,2h0a6,6,0,0,1-3,1.68c.85-1.26.85-2.47-2.57-2.22,1.73-1.53,2.93-2.33,3.93-2.28A2,2,0,0,1,39.9,246.47Z"/><path class="cls-22" d="M38.14,394c2.72,3.61-.34,4-3.9,4.53s-8.77,5.19-10.5,6.62-3.06-2.75-5.51-2.85-3.55-1.2-2.55-1.84c3.47-2.14,10.1-7.65,12.84-9.68a2.38,2.38,0,0,1,1.22-.45C32,390.12,35.25,392.13,38.14,394Z"/><path class="cls-13" d="M41.24,272.78s-6.57,2.07-13.53,3.84c0,0-.3-2.09-.51-4.9h0a10.16,10.16,0,0,0,6.11-1.23,77,77,0,0,1-1.62-17.25,3.08,3.08,0,0,0,1.61.06v.08C34.43,253.92,38.36,262.66,41.24,272.78Z"/></g></g></g></svg>